# xmcd
#
# Track frame offsets: 
#        150
#        10316
#        21528
#        31172
#        41546
#        53460
#        63305
#        72462
#        85928
#        97467
#
# Disc length: 1481 seconds
#
# Revision: 0
# Processed by: cddbd v1.4PL0 Copyright (c) Steve Scherf et al.
# Submitted via: ExactAudioCopy v0.90b2
#
DISCID=8405c70a
DTITLE=Warner Mack - Greatest Hits (Front Row Entertainment)
DYEAR=1900
DGENRE=Country
TTITLE0=The Bridge Washed Out
TTITLE1=Talkin' To The Wall
TTITLE2=Sittin' On A Rock (Crying In A Creek)
TTITLE3=Sittin' In An All Nite Cafe
TTITLE4=Is It Wrong (For Loving You)
TTITLE5=It Takes A Lot Of Memory
TTITLE6=Leave My Dream Alone
TTITLE7=I'll Still Be Missing You
TTITLE8=I'm Gonna Move On
TTITLE9=Amazing Grace
EXTD=
EXTT0=
EXTT1=
EXTT2=
EXTT3=
EXTT4=
EXTT5=
EXTT6=
EXTT7=
EXTT8=
EXTT9=
PLAYORDER=
